<svg width="18" height="20" viewBox="0 0 18 20" fill="none" xmlns="http://www.w3.org/2000/svg">
<path d="M6.72521 15.8519C6.9886 15.7689 7.13486 15.4882 7.0519 15.2248C6.96894 14.9614 6.68817 14.8151 6.42479 14.8981L6.72521 15.8519ZM1.62697 12.0914L1.14336 11.9644L0.889421 12.9316L1.37303 13.0586L1.62697 12.0914ZM12.075 18.875V19.375H13.075V18.875H12.075ZM12.075 11.875L12.0216 11.3779C11.8298 11.3985 11.667 11.5275 11.6032 11.7094C11.5393 11.8914 11.5858 12.0938 11.7226 12.2297L12.075 11.875ZM16.575 6.6525H17.075L17.075 6.65089L16.575 6.6525ZM15.4086 3.84375L14.9425 3.66274C14.8709 3.84724 14.9148 4.05664 15.0546 4.1968L15.4086 3.84375ZM15.3386 1.02012L15.7952 0.816238C15.7349 0.681316 15.6181 0.579956 15.476 0.539362L15.3386 1.02012ZM12.2971 2.12875L12.171 2.61258C12.3066 2.64792 12.4507 2.62476 12.5684 2.54875L12.2971 2.12875ZM6.85286 2.12875L6.58165 2.5488C6.69932 2.62477 6.84345 2.64791 6.97898 2.61258L6.85286 2.12875ZM3.81136 1.02012L3.67388 0.539397C3.53185 0.580014 3.41506 0.681356 3.35482 0.816238L3.81136 1.02012ZM3.74136 3.84375L4.09539 4.19683C4.23517 4.05667 4.27911 3.84725 4.20745 3.66274L3.74136 3.84375ZM2.57499 6.67525H3.07499L3.07499 6.67397L2.57499 6.67525ZM7.075 11.875L7.42795 12.2292C7.56366 12.0939 7.61015 11.893 7.54765 11.7119C7.48515 11.5308 7.32465 11.4013 7.13441 11.3785L7.075 11.875ZM6.575 13.975H7.075C7.075 13.9628 7.07455 13.9506 7.07366 13.9384L6.575 13.975ZM6.075 18.875V19.375H7.075V18.875H6.075ZM6.42479 14.8981C5.55391 15.1724 4.97365 15.1504 4.5675 15.0164C4.16283 14.8828 3.86205 14.6156 3.59028 14.2613C3.45321 14.0826 3.32849 13.8884 3.20138 13.6827C3.07871 13.4841 2.9466 13.2624 2.81213 13.0641C2.549 12.6761 2.19027 12.2393 1.62697 12.0914L1.37303 13.0586C1.5596 13.1076 1.7414 13.2669 1.98447 13.6253C2.10309 13.8003 2.21549 13.9895 2.35061 14.2082C2.48129 14.4198 2.62767 14.6494 2.79685 14.87C3.13758 15.3141 3.58996 15.7468 4.2541 15.966C4.91676 16.1847 5.72097 16.1682 6.72521 15.8519L6.42479 14.8981ZM13.075 13.8875C13.075 13.0737 13.127 12.2152 12.4274 11.5203L11.7226 12.2297C12.0712 12.576 12.075 12.9513 12.075 13.8875H13.075ZM12.1284 12.3721C13.3764 12.238 14.6387 11.9408 15.5811 11.0653C16.539 10.1753 17.075 8.77746 17.075 6.6525H16.075C16.075 8.61729 15.582 9.69943 14.9005 10.3327C14.2034 10.9803 13.2157 11.2495 12.0216 11.3779L12.1284 12.3721ZM17.075 6.65089C17.0712 5.4657 16.5995 4.32996 15.7627 3.4907L15.0546 4.1968C15.7053 4.84939 16.072 5.73253 16.075 6.65411L17.075 6.65089ZM15.8747 4.02476C16.0741 3.51123 16.1698 2.96326 16.1561 2.41254L15.1564 2.43732C15.1668 2.85592 15.0941 3.27241 14.9425 3.66274L15.8747 4.02476ZM16.1561 2.41254C16.1425 1.86181 16.0198 1.31925 15.7952 0.816238L14.8821 1.22401C15.0528 1.60634 15.1461 2.01873 15.1564 2.43732L16.1561 2.41254ZM15.3386 1.02012C15.476 0.539362 15.4755 0.539228 15.475 0.539093C15.4749 0.539047 15.4744 0.538912 15.4741 0.53882C15.4734 0.538636 15.4727 0.53845 15.4721 0.538261C15.4707 0.537883 15.4693 0.537494 15.4678 0.537096C15.4648 0.536299 15.4616 0.535464 15.4582 0.534599C15.4513 0.532867 15.4435 0.531013 15.4348 0.529096C15.4173 0.525261 15.396 0.521182 15.371 0.517329C15.3208 0.509617 15.2557 0.502859 15.1752 0.50071C15.0141 0.496407 14.7933 0.510645 14.5094 0.5713C13.9424 0.692451 13.126 0.998122 12.0258 1.70875L12.5684 2.54875C13.591 1.88825 14.2953 1.63961 14.7184 1.54923C14.9295 1.50412 15.0711 1.49829 15.1485 1.50035C15.1874 1.50139 15.2106 1.50443 15.219 1.50572C15.2232 1.50636 15.2238 1.50659 15.2208 1.50593C15.2193 1.5056 15.2169 1.50505 15.2136 1.50423C15.212 1.50382 15.2101 1.50334 15.2081 1.50278C15.2071 1.5025 15.206 1.50221 15.2048 1.50189C15.2043 1.50174 15.2037 1.50157 15.2031 1.5014C15.2028 1.50132 15.2023 1.50119 15.2022 1.50115C15.2017 1.50102 15.2013 1.50089 15.3386 1.02012ZM12.4232 1.64492C10.5556 1.1581 8.59437 1.1581 6.72675 1.64492L6.97898 2.61258C8.68121 2.16888 10.4688 2.16888 12.171 2.61258L12.4232 1.64492ZM7.12407 1.70869C6.02351 0.998113 5.20715 0.692455 4.64024 0.571305C4.35641 0.51065 4.13574 0.496406 3.97461 0.500711C3.89416 0.50286 3.82908 0.50962 3.77891 0.517338C3.75386 0.521193 3.7326 0.525276 3.71509 0.529115C3.70634 0.531034 3.69853 0.532891 3.69167 0.534625C3.68823 0.535492 3.68503 0.536328 3.68207 0.537126C3.68059 0.537525 3.67916 0.537914 3.6778 0.538293C3.67712 0.538482 3.67645 0.538669 3.6758 0.538853C3.67547 0.538945 3.67499 0.539081 3.67483 0.539127C3.67435 0.539262 3.67388 0.539397 3.81136 1.02012C3.94884 1.50085 3.94838 1.50098 3.94792 1.50112C3.94777 1.50116 3.94731 1.50129 3.94701 1.50137C3.94642 1.50154 3.94583 1.5017 3.94526 1.50186C3.94412 1.50218 3.94304 1.50247 3.942 1.50275C3.93994 1.50331 3.93809 1.50379 3.93646 1.5042C3.93319 1.50503 3.9308 1.50558 3.92929 1.50591C3.92626 1.50657 3.9268 1.50635 3.93099 1.50571C3.93932 1.50443 3.96253 1.50139 4.00132 1.50035C4.07865 1.49829 4.22017 1.50411 4.43126 1.54922C4.8542 1.63961 5.55859 1.88826 6.58165 2.5488L7.12407 1.70869ZM3.35482 0.816238C3.13018 1.31925 3.00749 1.86181 2.99383 2.41254L3.99353 2.43732C4.0039 2.01873 4.09716 1.60634 4.2679 1.22401L3.35482 0.816238ZM2.99383 2.41254C2.98018 2.96326 3.07584 3.51123 3.27528 4.02476L4.20745 3.66274C4.05586 3.27241 3.98315 2.85592 3.99353 2.43732L2.99383 2.41254ZM3.38733 3.49067C2.96982 3.90931 2.639 4.40619 2.4138 4.95287L3.33843 5.33375C3.51353 4.90868 3.77076 4.52233 4.09539 4.19683L3.38733 3.49067ZM2.4138 4.95287C2.18861 5.49955 2.07348 6.08529 2.07499 6.67653L3.07499 6.67397C3.07381 6.21425 3.16333 5.75882 3.33843 5.33375L2.4138 4.95287ZM2.07499 6.67525C2.07499 8.78674 2.61174 10.1717 3.57024 11.0556C4.51131 11.9234 5.77172 12.2226 7.01559 12.3715L7.13441 11.3785C5.93616 11.2351 4.94656 10.9645 4.24815 10.3205C3.56717 9.69251 3.07499 8.62376 3.07499 6.67525H2.07499ZM6.72205 11.5208C6.36606 11.8756 6.19691 12.3311 6.11932 12.7615C6.04167 13.1922 6.04875 13.636 6.07634 14.0116L7.07366 13.9384C7.04875 13.5992 7.04727 13.2506 7.10346 12.9389C7.15971 12.6268 7.26681 12.3897 7.42795 12.2292L6.72205 11.5208ZM6.075 13.975V18.875H7.075V13.975H6.075ZM13.075 18.875V13.8875H12.075V18.875H13.075Z" fill="black"/>
</svg>
