<svg width="92" height="50" viewBox="0 0 92 50" fill="none" xmlns="http://www.w3.org/2000/svg">
<path d="M13 48H0L25.5 7C25.5 7 26.4038 5 28 5C29.5962 5 30.5 7 30.5 7L42.5 26.5L58 1.5C58 1.5 59 0 60.5 0C62 0 63 1.5 63 1.5L92 48H79C77 48 76 46 76 46L62 23C62 23 61.5 22 61 22H60C59.5 22 59 23 59 23L45 46.5C45 46.5 44.0473 48 42.5 48C40.9527 48 40 46.5 40 46.5L30 29.5C30 29.5 29 27.5 28.5 27.5H27.5C27 27.5 26 29.5 26 29.5L16 46C16 46 14.5 48 13 48Z" fill="black"/>
<path d="M23 22.5027L7 48.5027L10 49.0027C10 49.0027 23.5 25.0027 24.5 24.0027C25.5 23.0027 26.5 23.0027 26.5 23.0027C26.5 23.0027 25.653 20.914 24.5 21.0027C23.9493 21.045 23 22.5027 23 22.5027Z" fill="white"/>
<path d="M64.5 18.5027L84.5 48.5027L81.5 49.0027C81.5 49.0027 66 23.0027 64 21.0027C62 19.0027 61 19.0027 61 19.0027C61 19.0027 61.847 16.914 63 17.0027C63.5507 17.0451 64.5 18.5027 64.5 18.5027Z" fill="white"/>
</svg>
