<svg width="92" height="48" viewBox="0 0 92 48" fill="none" xmlns="http://www.w3.org/2000/svg">
  <style>
  path {
      fill: #000;
    }
    @media (prefers-color-scheme: dark) {
      path {
        fill: #fff;
      }
    }
  </style>
<path fill-rule="evenodd" clip-rule="evenodd" d="M13 48H10.5648C13.1332 43.4443 23.6231 24.8796 24.5 24.0027C25.5 23.0027 26.5 23.0027 26.5 23.0027C26.5 23.0027 25.653 20.914 24.5 21.0027C23.9493 21.045 23 22.5027 23 22.5027L7.30934 48H0L25.5 7C25.5 7 26.4038 5 28 5C29.5962 5 30.5 7 30.5 7L42.5 26.5L58 1.5C58 1.5 59 0 60.5 0C62 0 63 1.5 63 1.5L92 48H84.1649L64.5 18.5027C64.5 18.5027 63.5507 17.045 63 17.0027C61.847 16.914 61 19.0027 61 19.0027C61 19.0027 62 19.0027 64 21.0027C65.7642 22.7669 78.0321 43.2044 80.9009 48H79C77 48 76 46 76 46L62 23C62 23 61.5 22 61 22H60C59.5 22 59 23 59 23L45 46.5C45 46.5 44.0473 48 42.5 48C40.9527 48 40 46.5 40 46.5L30 29.5C30 29.5 29 27.5 28.5 27.5H27.5C27 27.5 26 29.5 26 29.5L16 46C16 46 14.5 48 13 48Z" fill="black"/>
</svg>
