<svg width="91" height="89" viewBox="0 0 91 89" fill="none" xmlns="http://www.w3.org/2000/svg">
<g clip-path="url(#clip0_1236_12955)">
<path fill-rule="evenodd" clip-rule="evenodd" d="M46.4688 88.6654C70.5799 88.2318 89.992 68.551 89.992 44.3363C89.992 19.8501 70.142 0 45.6557 0C21.1694 0 1.31934 19.8501 1.31934 44.3363C1.31934 64.2292 14.4206 81.0622 32.4654 86.6775C29.3927 74.4583 26.5426 47.1302 26.5426 42.6678C26.5426 32.1095 34.2883 23.957 44.8466 23.957C55.4049 23.957 63.9593 31.7439 63.9593 42.3022C63.9593 52.8606 57.0444 58.9792 46.4688 61.013V88.6654Z" fill="#C4C4C4"/>
<path d="M49.4431 24.5C66.6891 30.42 71.2306 55.6447 46.4686 61.0137V67.9285V88.673C65.9929 88.2663 77.7888 77.2839 84.2969 66.3015C84.2969 48.5545 67.1901 24.5 49.4431 24.5Z" fill="#9CA3AF"/>
<path d="M20.8418 7.72861C1.19632 19.0709 -4.96256 45.8072 6.37975 65.4527C11.6165 74.523 21.2485 83.3851 32.2309 87.0459L28.3033 60.2001C13.5524 44.339 11.1301 33.1579 20.8418 7.72861Z" fill="white"/>
<path d="M65.5861 84.1987L46.4686 61.0137V88.673C55.4172 88.2663 59.17 87.2857 65.5861 84.1987Z" fill="white"/>
</g>
<defs>
<clipPath id="clip0_1236_12955">
<rect width="91" height="89" fill="white"/>
</clipPath>
</defs>
</svg>
