<svg width="168" height="168" viewBox="0 0 168 168" fill="none" xmlns="http://www.w3.org/2000/svg">
<path d="M83.9959 0.2771C37.7469 0.2771 0.25293 37.7701 0.25293 84.0191C0.25293 130.27 37.7469 167.76 83.9959 167.76C130.25 167.76 167.74 130.27 167.74 84.0191C167.74 37.7731 130.25 0.2811 83.9949 0.2811L83.9959 0.2771ZM122.4 121.057C120.9 123.517 117.68 124.297 115.22 122.787C95.5579 110.777 70.8059 108.057 41.6559 114.717C38.8469 115.357 36.0469 113.597 35.4069 110.787C34.7639 107.977 36.5169 105.177 39.3329 104.537C71.2329 97.2491 98.5959 100.387 120.67 113.877C123.13 115.387 123.91 118.597 122.4 121.057ZM132.65 98.2551C130.76 101.327 126.74 102.297 123.67 100.407C101.16 86.5711 66.8469 82.5641 40.2219 90.6461C36.7689 91.6891 33.1219 89.7431 32.0739 86.2961C31.0339 82.8431 32.9809 79.2031 36.4279 78.1531C66.8409 68.9251 104.65 73.3951 130.5 89.2801C133.57 91.1701 134.54 95.1891 132.65 98.2551ZM133.53 74.5111C106.54 58.4801 62.0099 57.0061 36.2409 64.8271C32.1029 66.0821 27.7269 63.7461 26.4729 59.6081C25.2189 55.4681 27.5529 51.0951 31.6939 49.8371C61.2749 40.8571 110.45 42.5921 141.524 61.0391C145.254 63.2481 146.474 68.0551 144.264 71.7721C142.064 75.4941 137.244 76.7211 133.534 74.5111H133.53Z" fill="#1ED760"/>
</svg>
